<svg width="64" height="64" viewBox="0 0 64 64" fill="none" xmlns="http://www.w3.org/2000/svg">
<rect width="64" height="64" fill="white"/>
<path d="M27.4243 5.38672L29.3096 29.6533C29.3096 29.9004 29.1699 30.0347 28.8906 30.0562L25.5229 30.1851C25.2974 30.1851 25.1846 30.083 25.1846 29.8789L24.9429 24.5615L21.2852 24.7065L20.0767 29.6694C20.0444 29.8198 20.0015 29.9219 19.9478 29.9756C19.894 30.0293 19.7974 30.0615 19.6577 30.0723L16.3223 30.1851C16.1074 30.1851 16 30.083 16 29.8789L23.0737 5.49951C23.1489 5.26318 23.2939 5.13965 23.5088 5.12891L27.0537 5C27.2793 5.01074 27.4028 5.13965 27.4243 5.38672ZM24.3789 12.0254L22.123 21.2744L24.7979 21.1777L24.3789 12.0254Z" fill="black"/>
<path d="M39.8515 5.40283L37.9985 21.9189C37.8481 23.1865 37.7729 24.0889 37.7729 24.626C37.7729 25.1631 37.9233 25.6196 38.2241 25.9956C38.5249 26.3716 39.0136 26.5596 39.6904 26.5596C40.3671 26.5596 40.8828 26.2212 41.2373 25.5444C41.5918 24.8677 41.8549 23.7827 42.0268 22.2896L43.9121 5.49951C43.9443 5.26318 44.0893 5.13965 44.3471 5.12891L47.602 5C47.8706 5.01074 48.0048 5.13965 48.0048 5.38672L46.1518 21.9189C45.7758 25.3027 44.9057 27.6177 43.5415 28.8638C42.435 29.8628 40.9902 30.3623 39.207 30.3623C37.4345 30.3623 36.0756 29.9004 35.1303 28.9766C34.1958 28.042 33.7285 26.667 33.7285 24.8516C33.7285 23.9814 33.7822 23.0737 33.8896 22.1284L35.791 5.49951C35.8125 5.35986 35.8447 5.26855 35.8877 5.22559C35.9414 5.17188 36.0434 5.13965 36.1938 5.12891L39.4487 5.01611C39.7172 5.02686 39.8515 5.15576 39.8515 5.40283Z" fill="black"/>
<path d="M20.3345 33.1934L30.7759 32.8228C31.0229 32.8335 31.1465 32.9678 31.1465 33.2256L30.7275 36.5288C30.7061 36.6899 30.6685 36.8027 30.6147 36.8672C30.5718 36.9316 30.4751 36.9692 30.3247 36.98L27.1987 37.0928L24.8462 57.6694C24.814 57.9272 24.6743 58.0615 24.4272 58.0723L21.0757 58.1851C20.8608 58.1851 20.7534 58.083 20.7534 57.8789L23.1221 37.2217L19.9155 37.3184C19.647 37.3076 19.5127 37.1841 19.5127 36.9478L19.9155 33.5962C19.9263 33.3384 20.0659 33.2041 20.3345 33.1934Z" fill="black"/>
<path d="M37.6762 58.3623C35.8715 58.3623 34.5073 57.8252 33.5835 56.751C32.6596 55.6768 32.1977 54.334 32.1977 52.7227C32.1977 48.6191 32.6113 44.564 33.4384 40.5571C34.0937 37.4097 35.0014 35.3042 36.1616 34.2407C37.2573 33.2524 38.7021 32.7583 40.4961 32.7583C42.3007 32.7583 43.665 33.3008 44.5888 34.3857C45.5234 35.4707 45.9907 36.8081 45.9907 38.3979C45.9907 39.9771 45.8886 41.8945 45.6845 44.1504C45.4804 46.3955 45.228 48.2754 44.9272 49.79C44.6264 51.2939 44.3686 52.395 44.1538 53.0933C43.9497 53.7808 43.665 54.479 43.2998 55.188C42.9345 55.897 42.5102 56.4663 42.0268 56.896C40.9419 57.8735 39.4917 58.3623 37.6762 58.3623ZM38.0952 54.5596C39.4594 54.5596 40.3349 53.3027 40.7216 50.7891C40.9795 49.124 41.2373 47.0508 41.4951 44.5693C41.7529 42.0879 41.8818 40.3423 41.8818 39.3325C41.8818 38.3228 41.7153 37.6084 41.3823 37.1895C41.06 36.7705 40.5981 36.561 39.9965 36.561C38.7505 36.561 37.9072 37.8232 37.4668 40.3477C37.2089 41.8301 36.9511 43.8442 36.6933 46.3901C36.4355 48.9253 36.3066 50.7139 36.3066 51.7559C36.3066 52.7979 36.4731 53.5283 36.8061 53.9473C37.1499 54.3555 37.5796 54.5596 38.0952 54.5596Z" fill="black"/>
</svg>
